<svg width="27" height="25" viewBox="0 0 27 25" fill="none" xmlns="http://www.w3.org/2000/svg">
<path fill-rule="evenodd" clip-rule="evenodd" d="M24.5399 0.192603C25.2873 -0.107466 26.0102 -0.0516248 26.4704 0.338648C26.8006 0.617853 27.1418 1.18608 26.8963 2.3029L22.8733 23.2138C22.8396 23.3009 22.5168 24.0698 21.7098 24.4012C21.473 24.4981 21.2251 24.5466 20.9667 24.5466C20.6323 24.5466 20.2819 24.4656 19.9162 24.3036L19.7879 24.2269L14.4021 20.0266L11.0657 23.1211C10.7687 23.3543 10.3097 23.5169 9.84826 23.339C9.32237 23.1788 9.0223 22.4007 8.83821 21.8086C8.56576 20.9317 7.40756 17.0755 6.94624 15.5396C6.9078 15.4116 6.8742 15.2998 6.84635 15.2071L1.38928 13.3385C1.25305 13.2888 0.137463 12.8581 0.00982625 11.8179C-0.133151 10.6643 1.25489 10.1464 1.41383 10.0912C2.28764 9.71501 23.7526 0.508012 24.5387 0.192603H24.5399ZM9.81819 20.8636L11.6591 15.9545L22.0909 4.29538L7.97728 14.7272L9.81819 20.8636Z" fill="white"/>
</svg>
