<svg width="27" height="27" viewBox="0 0 27 27" fill="none" xmlns="http://www.w3.org/2000/svg">
<path fill-rule="evenodd" clip-rule="evenodd" d="M22.0876 0H5.67503C2.76247 0 0 2.2838 0 5.19231V21.613C0 24.5215 2.76247 27 5.67503 27H22.0916C25.0002 27 27 24.5215 27 21.613V5.19231C27 2.2838 25.0002 0 22.0876 0ZM21.0938 15.585C22.5703 16.9561 22.8786 17.6255 22.9273 17.7066C23.5398 18.7248 22.2498 18.8018 22.2498 18.8018L19.7835 18.8383C19.7835 18.8383 19.2521 18.9438 18.5544 18.4611C17.6295 17.8323 16.7614 16.1854 16.0799 16.3963C15.3944 16.6154 15.4147 18.1001 15.4147 18.1001C15.4147 18.1001 15.4187 18.3597 15.2646 18.53C15.0942 18.7085 14.7616 18.6923 14.7616 18.6923H13.6541C13.6541 18.6923 11.2162 18.8951 9.07031 16.66C6.72972 14.2221 4.66496 9.41511 4.66496 9.41511C4.66496 9.41511 4.54733 9.11088 4.67308 8.95673C4.81911 8.78636 5.21665 8.77824 5.21665 8.77824L7.85742 8.76608C7.85742 8.76608 8.10487 8.8107 8.28335 8.9405C8.42939 9.04597 8.51457 9.2488 8.51457 9.2488C8.51457 9.2488 8.9405 10.3319 9.50436 11.3054C10.6077 13.212 11.1229 13.6298 11.4961 13.427C12.0437 13.1268 11.8774 10.7335 11.8774 10.7335C11.8774 10.7335 11.8896 9.86133 11.6016 9.4719C11.3825 9.17578 10.9688 9.08654 10.7822 9.0622C10.6321 9.04192 10.8795 8.69711 11.1959 8.54297C11.6705 8.31175 12.5102 8.29552 13.5 8.30769C14.2707 8.31581 14.4938 8.36448 14.794 8.4375C15.7067 8.65655 15.3984 9.50436 15.3984 11.5407C15.3984 12.1938 15.2808 13.1106 15.7514 13.4148C15.9542 13.5446 16.4491 13.4351 17.6822 11.3338C18.2704 10.3359 18.7085 9.16767 18.7085 9.16767C18.7085 9.16767 18.8059 8.95673 18.956 8.86749C19.1101 8.77824 19.317 8.80664 19.317 8.80664L22.0957 8.78636C22.0957 8.78636 22.9273 8.689 23.0652 9.06626C23.2072 9.45973 22.7529 10.3846 21.617 11.8977C19.7511 14.3803 19.5442 14.149 21.0938 15.585Z" fill="white"/>
</svg>
